<svg xmlns="http://www.w3.org/2000/svg" aria-hidden="true" style="position:absolute;width:0;height:0;overflow:hidden">
  <defs>
    <symbol id="icon-arrow" viewBox="0 0 32 32">
      <path fill="#fff" d="M25 8v13a.997.997 0 0 1-1 1 .997.997 0 0 1-1-1V10.414L8.707 24.708A1 1 0 0 1 7 24a1 1 0 0 1 .293-.708L21.587 9H11.001a.997.997 0 0 1-1-1 .997.997 0 0 1 1-1h13a.997.997 0 0 1 1 1z" style="fill:var(--color1, #fff)"/>
    </symbol>
    <symbol id="icon-check" viewBox="0 0 32 32">
      <path d="m18.701 10.714-11.2 11a1 1 0 0 1-1.402 0L1.299 17A1.007 1.007 0 0 1 1 16.295a1.003 1.003 0 0 1 .61-.928 1.004 1.004 0 0 1 1.091.208L6.8 19.6 17.3 9.287a1.002 1.002 0 1 1 1.403 1.429h-.001zm12.013-1.415a.991.991 0 0 0-.705-.3 1.012 1.012 0 0 0-.71.287l-10.5 10.313-2.354-2.313a.997.997 0 0 0-1.414.013.997.997 0 0 0 .013 1.414l3.054 3a1 1 0 0 0 1.402 0l11.2-11a.998.998 0 0 0 .013-1.415z"/>
    </symbol>
    <symbol id="icon-close" viewBox="0 0 32 32">
      <path fill="#fff" d="m8.532 25.333-1.867-1.867 7.467-7.467-7.467-7.467 1.867-1.867 7.467 7.467 7.467-7.467 1.867 1.867-7.467 7.467 7.467 7.467-1.867 1.867-7.467-7.467-7.467 7.467z" style="fill:var(--color1, #fff)"/>
    </symbol>
    <symbol id="icon-menu" viewBox="0 0 32 32">
      <path fill="#fff" d="M4 24v-2.667h24V24H4zm0-6.667v-2.667h24v2.667H4zm0-6.666V8h24v2.667H4z" style="fill:var(--color1, #fff)"/>
    </symbol>
    <symbol id="icon-minus" viewBox="0 0 32 32">
      <path d="M28 16a.997.997 0 0 1-1 1H5a.997.997 0 0 1-1-1 .997.997 0 0 1 1-1h22a.997.997 0 0 1 1 1z"/>
    </symbol>
    <symbol id="icon-playstore" viewBox="0 0 32 32">
      <path fill="#ea4335" d="M15.066 15.282 2.003 29.341l.002.009C2.406 30.877 3.78 32 5.412 32c.653 0 1.265-.179 1.79-.493l.042-.025 14.703-8.603-6.881-7.597z" style="fill:var(--color2, #ea4335)"/>
      <path fill="#fbbc04" d="m28.28 12.888-.012-.009-6.348-3.731-7.151 6.453 7.177 7.276 6.314-3.694a3.589 3.589 0 0 0 1.859-3.154 3.583 3.583 0 0 0-1.838-3.142z" style="fill:var(--color3, #fbbc04)"/>
      <path fill="#4285f4" d="M2.003 2.658a3.54 3.54 0 0 0-.12.921v24.843c0 .319.042.627.121.919l13.51-13.699L2.003 2.658z" style="fill:var(--color4, #4285f4)"/>
      <path fill="#34a853" d="m15.163 16 6.76-6.854L7.237.512A3.492 3.492 0 0 0 5.414.001c-1.632 0-3.008 1.126-3.409 2.654l-.001.004 13.159 13.342z" style="fill:var(--color5, #34a853)"/>
    </symbol>
    <symbol id="icon-plus" viewBox="0 0 32 32">
      <path d="M28 16a.997.997 0 0 1-1 1H17v10a.997.997 0 0 1-1 1 .997.997 0 0 1-1-1V17H5a.997.997 0 0 1-1-1 .997.997 0 0 1 1-1h10V5a.997.997 0 0 1 1-1 .997.997 0 0 1 1 1v10h10a.997.997 0 0 1 1 1z"/>
    </symbol>
  </defs>
</svg>
